<svg width="33" height="33" viewBox="0 0 33 33" fill="none" xmlns="http://www.w3.org/2000/svg">
<mask id="mask0_38_138" style="mask-type:alpha" maskUnits="userSpaceOnUse" x="0" y="0" width="33" height="33">
<rect width="33" height="33" fill="#D9D9D9"/>
</mask>
<g mask="url(#mask0_38_138)">
<path d="M6.875 30.25C6.11875 30.25 5.47135 29.9807 4.93281 29.4422C4.39427 28.9036 4.125 28.2563 4.125 27.5V8.25C4.125 7.49375 4.39427 6.84635 4.93281 6.30781C5.47135 5.76927 6.11875 5.5 6.875 5.5H8.25V2.75H11V5.5H22V2.75H24.75V5.5H26.125C26.8813 5.5 27.5286 5.76927 28.0672 6.30781C28.6057 6.84635 28.875 7.49375 28.875 8.25V27.5C28.875 28.2563 28.6057 28.9036 28.0672 29.4422C27.5286 29.9807 26.8813 30.25 26.125 30.25H6.875ZM6.875 27.5H26.125V13.75H6.875V27.5ZM6.875 11H26.125V8.25H6.875V11Z" fill="#1C1B1F"/>
</g>
</svg>
